<svg xmlns="http://www.w3.org/2000/svg" width="1348.9" height="401" viewBox="0 0 1348.9 401">
  <g id="Grupo_1" data-name="Grupo 1" transform="translate(-281 -340)">
    <rect id="Retângulo_1" data-name="Retângulo 1" width="401" height="401" rx="35" transform="translate(281 340)" fill="#519fee"/>
    <path id="Caminho_2" data-name="Caminho 2" d="M122.094,0V-26.334H33.782l84.854-144.172V-196.84H5.586v26.334H86.45L1.064-26.334V0ZM250.04,0V-196.84H221.312v84.854h-81.13V-196.84H111.454V0h28.728V-85.652h81.13V0Z" transform="translate(346 639)" fill="#fff"/>
    <path id="Caminho_1" data-name="Caminho 1" d="M123.012,0V-26.532H34.036l85.492-145.256V-198.32H5.628v26.532H87.1L1.072-26.532V0ZM226.728,0V-26.532H148.74v-60.3h77.988v-26.532H148.74v-58.424h77.988V-198.32H119.8V0ZM397.98,0V-198.32H369.036V-47.436H368.5L272.02-198.32H240.4V0H269.34V-153.3h.536L367.964,0ZM556.368,0V-198.32H527.424v85.492h-81.74V-198.32H416.74V0h28.944V-86.3h81.74V0Zm121.94-64.856c0,24.388-13.936,42.076-37.52,42.076s-37.52-17.42-37.52-42.076V-198.32H574.324V-62.712c0,41.272,29.212,66.464,66.464,66.464s66.464-24.924,66.464-66.464V-198.32H678.308ZM788.188,0C824.368,0,850.9-22.244,850.9-57.62c0-22.244-10.452-37.52-29.48-48.24,12.864-10.988,17.688-21.708,17.688-38.592,0-31.088-23.048-53.868-59.5-53.868H725.744V0Zm-33.5-115.776v-56.012h22.244c21.172,0,33.232,9.112,33.232,28.14,0,18.492-12.06,27.872-31.624,27.872Zm0,89.244V-89.244H786.58c26.264,0,35.376,18.224,35.376,31.624,0,19.3-15.544,31.088-36.18,31.088Z" transform="translate(779 640)"/>
  </g>
</svg>
