<svg xmlns="http://www.w3.org/2000/svg" xmlns:xlink="http://www.w3.org/1999/xlink" width="379.417" height="381.016" viewBox="0 0 379.417 381.016">
  <defs>
    <linearGradient id="linear-gradient" x1="0.083" y1="0.184" x2="0.887" y2="0.81" gradientUnits="objectBoundingBox">
      <stop offset="0" stop-color="#8f58ff"/>
      <stop offset="1" stop-color="#00b2bf"/>
    </linearGradient>
  </defs>
  <path id="Subtração_1" data-name="Subtração 1" d="M190.508,381.016a191.921,191.921,0,0,1-38.394-3.87A189.467,189.467,0,0,1,83.993,348.48a191.062,191.062,0,0,1-69.022-83.818A189.548,189.548,0,0,1,3.87,228.9a192.369,192.369,0,0,1,0-76.788A189.466,189.466,0,0,1,32.536,83.993a191.063,191.063,0,0,1,83.818-69.022,189.549,189.549,0,0,1,35.76-11.1A191.921,191.921,0,0,1,190.508,0a189.555,189.555,0,0,1,99.109,27.78,190.137,190.137,0,0,1,89.8,137.932H239.153l54.492-66.024c4.272-5.7,6.015-10.4,6.015-16.24,0-14.469-9.449-23.457-24.66-23.457H99.975c-11.656,0-23.457,7.644-23.457,22.254A23.207,23.207,0,0,0,99.975,105.7h125.1L80.728,280.727c-4.385,5.638-6.015,10.528-6.015,18.044,0,11.647,11.18,22.253,23.457,22.253H278.006c13.373,0,23.458-9.567,23.458-22.253,0-13.812-9.646-23.458-23.458-23.458H148.693l49.971-60.545a24.963,24.963,0,0,0,5.15.536h175.6a189.784,189.784,0,0,1-39.588,93.519,190.827,190.827,0,0,1-80.672,59.448A189.68,189.68,0,0,1,190.508,381.016Z" transform="translate(0)" fill="url(#linear-gradient)"/>
</svg>
